<svg width="154" height="181" viewBox="0 0 154 181" fill="none" xmlns="http://www.w3.org/2000/svg">
<g clip-path="url(#clip0_333_1048)">
<path d="M151.359 151.396H48.9658C48.3586 151.396 47.7764 151.154 47.347 150.724C46.9176 150.294 46.6761 149.711 46.6754 149.103V2.29389C46.6761 1.68572 46.9176 1.10265 47.347 0.672613C47.7764 0.242573 48.3585 0.00067858 48.9658 0H151.359C151.966 0.000679293 152.548 0.242574 152.977 0.672613C153.407 1.10265 153.648 1.68572 153.649 2.29389V149.103C153.648 149.711 153.407 150.294 152.977 150.724C152.548 151.154 151.966 151.396 151.359 151.396Z" fill="#3F3D56"/>
<path d="M149.203 149.237H51.1214C50.5142 149.237 49.932 148.995 49.5027 148.565C49.0733 148.135 48.8318 147.552 48.8311 146.944V4.45282C48.8317 3.84465 49.0733 3.26159 49.5026 2.83155C49.932 2.40151 50.5142 2.15961 51.1214 2.15894H149.203C149.81 2.15961 150.392 2.40151 150.822 2.83155C151.251 3.26159 151.493 3.84465 151.493 4.45282V146.944C151.493 147.552 151.251 148.135 150.822 148.565C150.392 148.995 149.81 149.237 149.203 149.237Z" fill="white"/>
<path d="M77.9503 141.766C69.2252 130.231 72.6853 117.065 67.5737 107.88C47.9826 72.6788 72.1063 75.922 99.3806 82.7676L99.4457 83.527C82.0866 86.21 70.6702 95.1578 68.1238 108.076C66.1448 118.115 69.7764 129.887 78.3496 141.222L77.9503 141.766Z" fill="#F0F0F0"/>
<path d="M97.116 98.8354L96.9337 98.1115C106.673 93.6891 105.836 80.5173 114.549 77.5095C180.925 54.5966 115.405 52.0127 100.668 39.8928C87.4884 29.0546 73.1255 16.4537 54.8719 9.96383L55.0175 9.22498C73.3508 15.7433 89.6937 26.4275 101.035 39.3094C112.433 52.2558 117.428 65.8917 115.1 77.705C113.263 87.0206 107.045 94.3273 97.116 98.8354Z" fill="#F0F0F0"/>
<path d="M70.6049 73.4484C66.1543 73.0962 71.406 70.1464 71.7575 65.689C71.8407 64.6288 72.1316 63.5953 72.6136 62.6477C73.0957 61.7001 73.7594 60.8569 74.5669 60.1663C75.3744 59.4757 76.3098 58.9512 77.3198 58.6227C78.3297 58.2943 79.3944 58.1683 80.453 58.2521C81.5115 58.3358 82.5432 58.6276 83.4892 59.1108C84.4351 59.594 85.2767 60.2592 85.9659 61.0682C86.6551 61.8772 87.1784 62.8143 87.5059 63.826C87.8334 64.8376 87.9587 65.904 87.8746 66.9641C87.523 71.4216 75.0555 73.8005 70.6049 73.4484Z" fill="#7BEA92"/>
<path d="M113.338 45.6978C112.28 45.614 111.248 45.3224 110.302 44.8394C109.357 44.3565 108.515 43.6917 107.826 42.883C107.137 42.0744 106.614 41.1377 106.286 40.1264C105.958 39.1152 105.832 38.0492 105.916 36.9893C106.268 32.5318 97.4294 29.5501 101.88 29.9022C106.331 30.2543 122.385 33.807 122.033 38.2644C121.949 39.3243 121.658 40.3573 121.176 41.3045C120.694 42.2517 120.03 43.0944 119.223 43.7847C118.415 44.4749 117.48 44.9991 116.47 45.3274C115.461 45.6556 114.396 45.7815 113.338 45.6978Z" fill="#7BEA92"/>
<path d="M123.079 35.5369C123.666 36.7555 123.32 38.1634 122.545 39.2155C121.664 40.4122 120.263 41.0022 118.825 41.1971C117.282 41.3847 115.717 41.2556 114.226 40.8178C112.787 40.4019 111.293 39.5104 110.996 37.9177C110.799 36.8562 111.251 35.7234 112.351 35.4291C112.793 35.3173 113.256 35.3213 113.695 35.4407C114.135 35.5601 114.536 35.7909 114.86 36.1109C115.774 37.0635 115.705 38.5926 115.124 39.6991C114.441 41.0005 113.074 41.7186 111.669 41.9556C109.998 42.2374 108.319 41.8438 106.747 41.2838C105.039 40.6752 103.381 39.9173 101.707 39.2211C98.4431 37.8634 95.1085 36.588 91.5981 36.0472C86.2356 35.2212 79.8713 36.5075 76.5886 41.2161C74.8165 43.7579 74.3145 46.9457 74.6959 49.9783C75.0981 53.1764 76.4993 56.1152 78.3546 58.7177C79.337 60.0714 80.4096 61.3571 81.5653 62.5658C81.9415 62.9321 82.2004 63.4023 82.3092 63.9164C82.4179 64.4305 82.3716 64.9654 82.1761 65.4531C81.1592 67.9557 77.093 67.1581 76.7901 64.5784C76.6524 63.4062 77.3054 62.199 78.1212 61.404C79.0472 60.5366 80.2138 59.9706 81.4673 59.7805C84.1058 59.3392 86.8947 60.319 88.9115 62.0208C91.19 63.9434 92.4726 66.8651 93.1483 69.7093C93.9175 72.9475 93.9567 76.2781 94.0298 79.5882C94.1046 82.9756 94.2332 86.403 95.2035 89.6724C95.9926 92.3039 97.2107 94.7866 98.8086 97.02C102 101.52 106.537 104.887 111.764 106.635C113.028 107.046 114.325 107.351 115.64 107.545C116.155 107.621 116.216 106.814 115.703 106.738C109.971 105.886 104.699 102.778 100.926 98.4086C99.0345 96.2287 97.5398 93.7334 96.5097 91.0361C95.2791 87.7875 94.967 84.3367 94.8665 80.8888C94.7639 77.3674 94.8198 73.8141 94.1159 70.3453C93.4936 67.2786 92.2729 64.1733 90.0123 61.9389C88.019 59.9688 85.1674 58.75 82.3492 58.8807C79.7268 59.0024 76.9229 60.4489 76.1436 63.1286C75.778 64.3859 76.0106 65.7357 76.969 66.6697C77.5155 67.1888 78.1948 67.5462 78.9317 67.7021C79.6686 67.8581 80.4342 67.8066 81.1437 67.5533C81.9145 67.2194 82.5337 66.6102 82.8808 65.8443C83.2278 65.0783 83.278 64.2105 83.0214 63.4096C82.8057 62.8215 82.459 62.2904 82.0077 61.8566C79.642 59.3263 77.4711 56.4948 76.2931 53.2001C75.1943 50.1271 74.9689 46.592 76.2361 43.5342C78.6351 37.7453 85.5975 36.0059 91.2687 36.815C94.9802 37.3445 98.4945 38.7518 101.933 40.1914C103.688 40.9265 105.432 41.7435 107.253 42.3062C108.883 42.81 110.633 43.063 112.312 42.6498C113.778 42.2891 115.125 41.4355 115.835 40.07C116.48 38.8296 116.592 37.2556 115.825 36.0404C114.716 34.2835 111.653 33.8883 110.537 35.8616C109.797 37.171 110.161 38.8477 111.133 39.9336C112.223 41.1511 113.856 41.6484 115.419 41.8994C118.371 42.3737 122.007 42.0009 123.586 39.0803C124.237 37.8771 124.413 36.4425 123.807 35.1847C123.758 35.0917 123.675 35.0214 123.576 34.9885C123.476 34.9556 123.368 34.9628 123.273 35.0085C123.179 35.0542 123.106 35.1349 123.07 35.2335C123.033 35.3321 123.037 35.4409 123.079 35.5369Z" fill="#3F3D56"/>
<path d="M113.582 107.71C108.863 107.336 96.2433 113.804 92.8273 111.021C92.4005 110.676 91.9875 110.314 91.5886 109.935C90.2824 108.709 89.1289 107.328 88.153 105.825C87.9838 105.571 87.823 105.314 87.6677 105.056C87.1203 104.137 86.6385 103.181 86.2257 102.194C86.1533 102.015 86.0812 101.833 86.009 101.651C84.0866 96.6757 83.9892 91.1782 85.7342 86.1373C87.4791 81.0963 90.9532 76.839 95.5382 74.1227C100.123 71.4064 105.522 70.4075 110.773 71.3036C116.025 72.1997 120.788 74.9328 124.216 79.0165C124.4 79.2314 124.577 79.4511 124.751 79.676C126.491 81.9081 127.794 84.4499 128.59 87.1671C128.59 87.1698 128.593 87.17 128.592 87.1727C129.78 91.2474 129.8 95.5745 128.648 99.6596L128.648 99.665C128.622 99.7549 128.596 99.8449 128.567 99.9347C125.619 109.926 124.367 108.563 113.582 107.71Z" fill="#7BEA92"/>
<path d="M86.3275 102.205C86.2933 102.205 86.2591 102.201 86.2257 102.194C86.1533 102.015 86.0812 101.833 86.009 101.651C86.0395 101.575 86.0924 101.51 86.1606 101.465C86.2289 101.42 86.3093 101.396 86.3912 101.397C86.7997 101.396 87.2068 101.349 87.605 101.258C91.0616 100.476 93.0764 96.9318 93.9396 93.7678C94.999 89.8966 95.0136 85.7369 96.9283 82.1255C97.6723 80.6415 98.7659 79.3613 100.115 78.3955C101.596 77.3903 103.395 76.9687 105.168 77.2117C109.338 77.7636 112.382 80.9795 116.254 82.3037C117.849 82.8495 119.546 82.9838 121.141 82.3628C122.497 81.8366 123.733 80.7974 124.013 79.3036C124.022 79.2432 124.045 79.1857 124.081 79.1359C124.116 79.086 124.162 79.0452 124.216 79.0165C124.4 79.2314 124.577 79.4511 124.751 79.676C124.689 79.9457 124.598 80.208 124.481 80.4587C123.801 81.8884 122.444 82.8124 120.967 83.2749C119.257 83.8082 117.478 83.6052 115.814 83.008C111.935 81.6155 108.744 78.174 104.46 77.9597C100.748 77.7742 98.1819 80.8306 96.9465 84.0192C95.419 87.9644 95.6459 92.3868 93.9311 96.2739C92.5817 99.3318 89.8776 102.19 86.3275 102.205Z" fill="#3F3D56"/>
<path d="M88.153 105.825C87.9839 105.571 87.823 105.314 87.6677 105.056C87.7053 105.026 87.7488 105.004 87.7954 104.992C87.8421 104.98 87.8907 104.979 87.9379 104.988C91.4021 105.397 94.8916 104.466 97.6928 102.384C98.9219 101.484 99.9902 100.382 100.853 99.1252C101.748 97.8101 102.289 96.3315 102.897 94.8717C103.494 93.4354 104.195 91.983 105.382 90.9427C106.593 89.8826 108.155 89.4377 109.738 89.3896C113.487 89.2775 116.757 91.4123 120.406 91.8526C122.034 92.049 123.65 91.8142 125.044 90.9038C126.247 90.1165 127.122 88.8837 127.066 87.4038C127.045 86.9149 127.756 86.9468 127.86 87.3773C127.867 87.4069 127.871 87.4372 127.872 87.4676C127.936 89.189 126.879 90.6619 125.488 91.5725C123.872 92.633 121.984 92.8951 120.094 92.6265C116.438 92.1044 113.058 89.8879 109.275 90.222C108.481 90.2679 107.705 90.4803 106.998 90.8455C106.292 91.2107 105.669 91.7205 105.172 92.3419C104.176 93.6221 103.65 95.1858 103.036 96.6694C102.453 98.1521 101.638 99.5324 100.621 100.758C99.5925 101.955 98.3793 102.98 97.0276 103.793C94.3686 105.418 91.2531 106.132 88.153 105.825Z" fill="#3F3D56"/>
<path d="M92.8273 111.021C92.4005 110.676 91.9875 110.314 91.5886 109.935C93.6471 110.46 95.7923 110.55 97.8873 110.198C100.523 109.775 103.01 108.692 105.117 107.051C106.167 106.228 107.092 105.258 107.866 104.171C108.748 102.928 109.519 101.554 110.849 100.731C113.736 98.9452 117.191 100.578 120.073 101.455C121.578 101.915 123.194 102.227 124.726 101.718C125.914 101.322 127.067 100.444 127.302 99.1469C127.394 98.6371 128.202 98.6984 128.108 99.2107C128.09 99.3067 128.068 99.4024 128.045 99.498C127.674 100.906 126.524 101.922 125.166 102.416C123.393 103.055 121.557 102.756 119.797 102.219C116.902 101.334 113.118 99.5163 110.498 102.024C109.393 103.082 108.715 104.514 107.718 105.67C106.829 106.706 105.804 107.616 104.67 108.374C101.187 110.698 96.966 111.641 92.8273 111.021Z" fill="#3F3D56"/>
<path d="M149.338 168.533H130.206C129.599 168.532 129.017 168.291 128.588 167.86C128.158 167.43 127.917 166.847 127.916 166.239V159.492C127.917 158.884 128.158 158.301 128.588 157.871C129.017 157.441 129.599 157.199 130.206 157.199H149.338C149.945 157.199 150.527 157.441 150.956 157.871C151.386 158.301 151.627 158.884 151.628 159.492V166.239C151.627 166.847 151.386 167.43 150.956 167.86C150.527 168.291 149.945 168.532 149.338 168.533Z" fill="#E6E6E6"/>
<path d="M38.3924 90.2345L38.8974 94.9254L38.6002 101.076L52.2036 99.4575L53.4819 90.2345L51.8533 90.2507L38.3924 90.2345Z" fill="#FFB6B6"/>
<path d="M54.6243 75.6982L50.4186 74.1403L48.6213 71.5264L42.1564 70.8789L38.1687 73.4375L34.8256 75.1424L34.8829 84.0448L38.7265 99.9864L52.4687 99.4467L54.2776 88.0789C54.2776 88.0789 58.4797 82.4261 53.9543 79.1887L54.6243 75.6982Z" fill="#CCCCCC"/>
<path d="M31.3365 175.398H34.3107L35.7259 163.909H31.3365V175.398Z" fill="#FFB6B6"/>
<path d="M30.3659 173.358L35.1174 173.074V175.113L39.6348 178.237C39.858 178.392 40.026 178.613 40.1145 178.87C40.2029 179.127 40.207 179.405 40.1264 179.664C40.0457 179.924 39.8843 180.15 39.6659 180.311C39.4475 180.472 39.1834 180.559 38.9123 180.559H33.2554L32.2803 178.542L31.8996 180.559H29.7667L30.3659 173.358Z" fill="#2F2E41"/>
<path d="M48.0427 175.398H51.0169L52.4321 163.909H48.0427V175.398Z" fill="#FFB6B6"/>
<path d="M47.072 173.358L51.8236 173.074V175.113L56.341 178.237C56.5642 178.392 56.7322 178.613 56.8206 178.87C56.9091 179.127 56.9132 179.405 56.8325 179.664C56.7518 179.924 56.5905 180.15 56.3721 180.311C56.1537 180.472 55.8896 180.559 55.6185 180.559H49.9615L48.9865 178.542L48.6058 180.559H46.4729L47.072 173.358Z" fill="#2F2E41"/>
<path d="M30.0533 165.49H30.0856L30.6576 146.809C30.2874 146.094 30.0996 145.298 30.1107 144.493C30.1219 143.687 30.3318 142.897 30.7216 142.193L30.8035 142.044L30.5912 141.059C30.3184 139.792 30.4436 138.472 30.9494 137.28L31.483 119.854C29.5767 107.48 38.6618 99.41 38.6618 99.41H52.2715L55.1933 109.464C57.1249 128.312 56.7744 146.679 53.7093 164.473L53.7928 164.515C54.0937 164.619 54.2228 165.037 54.0812 165.447C53.9395 165.858 53.5808 166.107 53.2799 166.003L46.0924 165.753C45.7915 165.649 45.6624 165.231 45.8041 164.82C45.9457 164.409 46.3045 164.161 46.6054 164.265L47.0941 164.512L46.0518 146.486L46.1675 143.193L45.9292 139.457L44.8275 122.655L40.6574 143.317L36.3978 165.698C36.5153 165.805 36.5977 165.944 36.6343 166.099C36.6708 166.253 36.6598 166.415 36.6025 166.563C36.5453 166.711 36.4446 166.838 36.3137 166.928C36.1828 167.017 36.0279 167.065 35.8694 167.065H30.0533C29.8448 167.065 29.6449 166.982 29.4975 166.834C29.3501 166.686 29.2673 166.486 29.2673 166.277C29.2673 166.069 29.3501 165.868 29.4975 165.721C29.6449 165.573 29.8448 165.49 30.0533 165.49Z" fill="#2F2E41"/>
<path d="M28.6383 112.565C28.3786 112.314 28.177 112.009 28.0476 111.672C27.9182 111.335 27.8642 110.973 27.8895 110.613C27.9147 110.252 28.0185 109.902 28.1936 109.586C28.3687 109.27 28.6108 108.996 28.9029 108.784L32.529 86.493L36.7817 87.9916L32.4724 109.465C32.7955 109.98 32.9188 110.596 32.8188 111.196C32.7188 111.796 32.4025 112.338 31.9299 112.72C31.4573 113.103 30.8612 113.298 30.2545 113.269C29.6479 113.24 29.0728 112.99 28.6383 112.565Z" fill="#FFB6B6"/>
<path d="M35.3975 75.1227C35.3975 75.1227 34.1777 74.6623 33.735 77.3925C33.3806 79.5783 29.9205 92.7719 30.2478 95.8289C29.8418 95.9714 29.4946 96.2451 29.2609 96.6069C29.0273 96.9688 28.9205 97.3982 28.9573 97.8275L35.3376 97.8602C36.3145 96.7931 36.4412 95.5055 35.9694 95.1891L36.8521 91.2884L41.0092 78.7038L36.2851 75.4398L35.3975 75.1227Z" fill="#CCCCCC"/>
<path d="M58.0123 113.514C58.2926 113.286 58.5196 113 58.6775 112.675C58.8354 112.35 58.9202 111.995 58.9261 111.633C58.9319 111.272 58.8586 110.914 58.7113 110.584C58.5639 110.254 58.3462 109.961 58.0734 109.725L56.78 87.3026L52.0104 88.3299L54.4587 110.095C54.0925 110.58 53.9168 111.183 53.9649 111.79C54.013 112.396 54.2815 112.964 54.7195 113.385C55.1575 113.807 55.7347 114.052 56.3415 114.076C56.9484 114.1 57.5429 113.899 58.0123 113.514Z" fill="#FFB6B6"/>
<path d="M54.4951 75.628C54.4951 75.628 55.7499 75.2744 55.9564 78.0327C56.1217 80.241 58.4354 93.6838 57.8466 96.7012C58.2389 96.8782 58.5613 97.1808 58.763 97.5614C58.9647 97.9421 59.0342 98.3791 58.9606 98.8037L52.6012 98.2864C51.7197 97.139 51.704 95.8453 52.2012 95.5707L51.6569 91.6084L48.5966 78.7122L53.5835 75.8674L54.4951 75.628Z" fill="#CCCCCC"/>
<path d="M42.5523 70.419C46.1054 70.419 48.9857 67.5342 48.9857 63.9757C48.9857 60.4171 46.1054 57.5323 42.5523 57.5323C38.9992 57.5323 36.1189 60.4171 36.1189 63.9757C36.1189 67.5342 38.9992 70.419 42.5523 70.419Z" fill="#FFB8B8"/>
<path d="M29.7665 77.5169C28.4051 77.0337 27.0437 76.5496 25.6823 76.0646C25.9169 75.6703 26.2157 75.318 26.5664 75.0224C27.8626 73.9384 29.6517 73.7425 31.2974 73.3768C32.9457 73.0111 34.7349 72.2614 35.3374 70.6837C35.9633 69.0433 35.0557 67.2724 34.5289 65.6006C33.7908 63.268 33.8064 60.6638 34.7949 58.4278C35.7833 56.1919 37.7916 54.3791 40.1753 53.8462C42.5591 53.316 45.2533 54.1806 46.719 56.1344C47.6633 55.8507 48.6787 55.9231 49.5734 56.3379C50.4681 56.7527 51.1802 57.4813 51.5752 58.386C51.9169 59.2428 51.9273 60.2746 51.4188 61.0451C50.9102 61.8157 49.8226 62.2101 49.0037 61.7817L49.4784 60.575C48.01 61.0739 47.0555 63.733 47.2537 65.2741C47.4493 66.8126 48.3464 68.1604 49.2567 69.4168C50.1669 70.6733 51.1371 71.9427 51.5283 73.4447C52.0916 75.6049 51.3301 77.9662 49.9217 79.698C48.5134 81.4298 46.5286 82.6053 44.4734 83.4699C42.935 84.1177 41.3363 84.6111 39.7007 84.9431C39.9928 84.3737 40.2823 83.8042 40.5744 83.2348L37.1082 85.3349C36.438 85.4002 35.7625 85.4394 35.087 85.4524C33.1205 85.4864 31.1149 85.28 29.3153 84.4938C27.5131 83.705 25.93 82.2761 25.278 80.419C25.069 79.8182 24.97 79.1847 24.9859 78.5487C26.5794 78.2039 28.1729 77.86 29.7665 77.5169Z" fill="#2F2E41"/>
<path d="M23.2784 173.462C23.079 173.471 22.8815 173.418 22.7129 173.312C22.5442 173.205 22.4125 173.048 22.3354 172.864C22.2584 172.679 22.2399 172.476 22.2823 172.28C22.3248 172.085 22.4262 171.907 22.5728 171.772C22.5973 171.674 22.6149 171.604 22.6395 171.506C22.6307 171.485 22.6219 171.463 22.613 171.442C22.4121 170.967 22.0755 170.562 21.6454 170.278C21.2153 169.993 20.7109 169.843 20.1956 169.845C19.6803 169.847 19.1771 170.001 18.7491 170.288C18.3211 170.576 17.9875 170.983 17.7901 171.46C17.0013 173.363 15.9971 175.269 15.7498 177.281C15.6409 178.17 15.6868 179.071 15.8856 179.945C14.0329 175.897 13.0709 171.498 13.0647 167.045C13.0643 165.928 13.1263 164.812 13.2503 163.701C13.3529 162.791 13.4951 161.887 13.6771 160.99C14.6701 156.121 16.8021 151.557 19.898 147.674C21.3964 146.855 22.6082 145.596 23.3701 144.066C23.6461 143.516 23.8411 142.929 23.9492 142.323C23.7802 142.346 23.6084 142.359 23.4394 142.37C23.3867 142.373 23.3313 142.376 23.2786 142.379L23.2588 142.38C23.073 142.388 22.8888 142.342 22.7283 142.248C22.5678 142.154 22.4379 142.016 22.3542 141.849C22.2705 141.683 22.2365 141.496 22.2565 141.311C22.2764 141.126 22.3494 140.95 22.4665 140.806C22.5395 140.716 22.6126 140.626 22.6856 140.536C22.7965 140.397 22.9101 140.261 23.0209 140.123C23.0337 140.109 23.0457 140.095 23.0569 140.081C23.1844 139.923 23.3119 139.767 23.4394 139.609C23.2067 139.247 22.8937 138.944 22.5249 138.724C21.2475 137.974 19.4851 138.493 18.5624 139.651C17.6368 140.808 17.4623 142.432 17.7837 143.877C18.0998 145.108 18.6227 146.275 19.3299 147.33C19.2606 147.419 19.1886 147.505 19.1193 147.594C17.853 149.224 16.7492 150.976 15.824 152.822C16.049 150.754 15.7804 148.661 15.0404 146.717C14.2904 144.904 12.8846 143.378 11.6466 141.812C10.1596 139.93 7.11037 140.751 6.8484 143.137C6.84586 143.16 6.84339 143.183 6.84097 143.206C7.02485 143.31 7.20485 143.42 7.38096 143.537C7.6022 143.685 7.77363 143.896 7.87279 144.144C7.97195 144.391 7.99421 144.662 7.93666 144.923C7.8791 145.183 7.74442 145.419 7.55025 145.602C7.35609 145.784 7.11149 145.903 6.84852 145.944L6.82159 145.948C6.88709 146.612 7.00288 147.269 7.16795 147.915C7.64628 149.719 8.49153 151.405 9.65071 152.866C10.8099 154.327 12.258 155.533 13.9043 156.408C14.0124 156.463 14.1177 156.519 14.2257 156.572C13.2961 159.21 12.713 161.958 12.4911 164.748C12.3654 166.393 12.3728 168.046 12.5132 169.69L12.5049 169.632C12.1502 167.804 11.1763 166.154 9.74776 164.961C7.62598 163.216 4.62829 162.573 2.33926 161.17C2.09599 161.013 1.81312 160.93 1.52403 160.929C1.23493 160.928 0.951675 161.01 0.707646 161.166C0.463618 161.321 0.269 161.543 0.146757 161.805C0.0245131 162.068 -0.0202615 162.359 0.0177116 162.646C0.020778 162.667 0.0239035 162.687 0.0270777 162.708C0.368304 162.847 0.700533 163.007 1.02185 163.188C1.20573 163.292 1.38574 163.402 1.56185 163.519C1.78309 163.667 1.95452 163.878 2.05368 164.125C2.15284 164.373 2.17509 164.644 2.11754 164.904C2.05998 165.165 1.9253 165.401 1.73113 165.584C1.53697 165.766 1.29237 165.885 1.0294 165.926L1.00245 165.93C0.983052 165.933 0.966433 165.935 0.947062 165.938C1.53009 167.332 2.3484 168.616 3.36613 169.732C4.62339 171.083 6.14294 172.163 7.83163 172.905C9.52032 173.647 11.3426 174.036 13.1866 174.047H13.1894C13.69 176.226 14.4153 178.347 15.3536 180.375H23.0847C23.1124 180.289 23.1373 180.2 23.1623 180.114C22.4466 180.159 21.7282 180.116 21.023 179.987C21.5966 179.282 22.1702 178.571 22.7438 177.866C22.7566 177.853 22.7686 177.839 22.7798 177.825C23.0708 177.464 23.3645 177.106 23.6555 176.745L23.6556 176.745C23.6711 175.639 23.5444 174.535 23.2786 173.462L23.2784 173.462Z" fill="#F2F2F2"/>
<path d="M75.2059 180.917L0.903849 181C0.818758 181 0.73715 180.966 0.676981 180.906C0.616813 180.846 0.583008 180.764 0.583008 180.679C0.583008 180.593 0.616813 180.512 0.676981 180.451C0.73715 180.391 0.818758 180.357 0.903849 180.357L75.2059 180.274C75.291 180.274 75.3727 180.308 75.4328 180.369C75.493 180.429 75.5268 180.511 75.5268 180.596C75.5268 180.681 75.493 180.763 75.4328 180.823C75.3727 180.883 75.291 180.917 75.2059 180.917Z" fill="#CACACA"/>
</g>
<defs>
<clipPath id="clip0_333_1048">
<rect width="153.649" height="181" fill="white"/>
</clipPath>
</defs>
</svg>
