<svg width="213" height="181" viewBox="0 0 213 181" fill="none" xmlns="http://www.w3.org/2000/svg">
<g clip-path="url(#clip0_333_1076)">
<path d="M187.054 174.266C189.38 178.788 194.464 180.808 194.464 180.808C194.464 180.808 195.777 175.497 193.45 170.976C191.124 166.454 186.04 164.434 186.04 164.434C186.04 164.434 184.728 169.745 187.054 174.266Z" fill="#F1F1F1"/>
<path d="M188.741 172.826C193.047 175.532 194.624 180.77 194.624 180.77C194.624 180.77 189.22 181.622 184.914 178.917C180.608 176.212 179.031 170.973 179.031 170.973C179.031 170.973 184.435 170.121 188.741 172.826Z" fill="#F1F1F1"/>
<path d="M128.237 177.678H125.217L123.781 166.031L128.237 166.032L128.237 177.678Z" fill="#FFB7B7"/>
<path d="M129.007 180.605L119.271 180.604V180.481C119.271 179.476 119.67 178.513 120.381 177.802C121.091 177.091 122.055 176.692 123.06 176.692L129.007 176.692L129.007 180.605Z" fill="#2F2E41"/>
<path d="M146.955 177.678H143.935L142.499 166.031L146.955 166.032L146.955 177.678Z" fill="#FFB7B7"/>
<path d="M147.725 180.605L137.989 180.604V180.481C137.989 179.476 138.388 178.512 139.099 177.802C139.809 177.091 140.773 176.692 141.778 176.692L147.725 176.692L147.725 180.605Z" fill="#2F2E41"/>
<path d="M138.187 112.077L132.246 100.122L133.776 90.2052L126.634 88.2349L125.895 101.534L135.157 114.122C135.091 114.593 135.162 115.074 135.363 115.506C135.564 115.937 135.886 116.301 136.29 116.554C136.694 116.806 137.162 116.936 137.638 116.927C138.114 116.919 138.577 116.773 138.972 116.506C139.367 116.24 139.676 115.865 139.861 115.427C140.047 114.988 140.102 114.505 140.019 114.037C139.936 113.568 139.718 113.133 139.393 112.785C139.068 112.437 138.649 112.191 138.187 112.077Z" fill="#FFB7B7"/>
<path d="M151.039 112.077L156.98 100.122L155.45 90.2052L162.592 88.2349L163.331 101.534L154.068 114.122C154.135 114.593 154.063 115.074 153.862 115.506C153.661 115.937 153.339 116.301 152.936 116.554C152.532 116.806 152.064 116.936 151.588 116.927C151.112 116.919 150.648 116.773 150.254 116.506C149.859 116.24 149.55 115.865 149.364 115.427C149.179 114.988 149.124 114.505 149.207 114.037C149.29 113.568 149.507 113.133 149.832 112.785C150.158 112.437 150.577 112.191 151.039 112.077Z" fill="#FFB7B7"/>
<path d="M147.073 71.218C150.662 71.218 153.571 68.3088 153.571 64.7201C153.571 61.1314 150.662 58.2222 147.073 58.2222C143.485 58.2222 140.576 61.1314 140.576 64.7201C140.576 68.3088 143.485 71.218 147.073 71.218Z" fill="#FFB9B9"/>
<path d="M140.625 64.6853C140.625 64.6853 139.92 63.6278 140.191 62.4889C140.353 61.8423 140.417 61.1751 140.381 60.5095C140.684 59.5229 141.065 58.5618 141.52 57.6352C142.089 56.6048 141.818 56.171 143.607 55.8456C145.397 55.5202 144.665 53.1883 149.383 55.71C149.542 55.9323 149.764 56.1024 150.019 56.1989C150.275 56.2954 150.554 56.314 150.82 56.2523C151.796 56.0625 152.149 57.4183 152.149 57.4183C152.149 57.4183 152.8 57.0387 153.044 57.581C153.288 58.1233 155.028 57.2555 155.028 60.9161C155.028 64.5767 153.048 67.8466 153.048 67.8466C153.048 67.8466 151.657 72.234 148.43 71.6103C145.204 70.9867 144.736 71.364 142.519 67.1771C142.066 68.4859 141.369 63.517 140.625 64.6853Z" fill="#2F2E41"/>
<path d="M132.791 106.707L132.038 109.661C132.038 109.661 128.489 111.375 127.069 126.774L125.156 149.862L122.236 174.059L128.305 174.53L132.514 159.2L141.605 126.967L143.329 151.352L141.411 173.451L147.815 173.697L152.248 149.068C152.248 149.068 159.039 112.993 154.658 111.943L154.218 108.184L132.791 106.707Z" fill="#2F2E41"/>
<path d="M131.386 78.9407L141.84 73.1801L150.711 73.6535L161.308 79.9259L156.891 107.508C156.891 107.508 159.423 110.339 151.772 109.508C144.12 108.677 131.753 108.003 131.753 108.003C131.753 108.003 130.759 106.029 132.883 105.752C135.008 105.475 133.231 105.54 133.231 105.54C133.231 105.54 131.947 101.418 133.231 100.614L133.852 92.1483L131.386 78.9407Z" fill="#3F3D56"/>
<path d="M134.269 79.3684L131.386 78.9407L125.279 89.8356L135.202 94.2105L134.269 79.3684Z" fill="#3F3D56"/>
<path d="M157.913 81.3387L161.308 79.9258L164.685 95.2541L155.52 96.9898L157.913 81.3387Z" fill="#3F3D56"/>
<path d="M79.5145 181H212.49C212.562 181 212.631 180.971 212.682 180.92C212.733 180.869 212.761 180.8 212.761 180.728C212.761 180.656 212.733 180.587 212.682 180.536C212.631 180.485 212.562 180.456 212.49 180.456H79.5145C79.4424 180.456 79.3733 180.485 79.3223 180.536C79.2713 180.587 79.2426 180.656 79.2426 180.728C79.2426 180.8 79.2713 180.869 79.3223 180.92C79.3733 180.971 79.4424 181 79.5145 181Z" fill="#CBCBCB"/>
<path d="M65.2638 108.122H30.7284V125.526H65.2638V108.122Z" fill="white"/>
<path d="M61.1835 112.577H34.8087V113.471H61.1835V112.577Z" fill="#7BEA92"/>
<path d="M61.1835 116.377H34.8087V117.271H61.1835V116.377Z" fill="#7BEA92"/>
<path d="M61.1835 120.177H34.8087V121.071H61.1835V120.177Z" fill="#7BEA92"/>
<path d="M65.5357 125.798H30.4564V107.85H65.5357V125.798ZM31.0003 125.254H64.9919V108.394H31.0003V125.254Z" fill="#3F3D56"/>
<path d="M40.4465 86.5058C33.1351 86.5118 25.967 84.4769 19.7493 80.6301L19.5914 80.5323L19.689 80.3743L40.3429 46.9478H79.8185V47.1336C79.8185 68.8436 62.1563 86.5058 40.4465 86.5058Z" fill="#7BEA92"/>
<path d="M15.1196 72.3128L14.9927 72.2343C8.02412 67.9255 3.00046 61.0797 0.980406 53.1396C-1.03965 45.1995 0.10167 36.7853 4.16384 29.6702L4.23792 29.5409L31.812 45.2975L15.1196 72.3128Z" fill="#F1F1F1"/>
<path d="M79.8185 41.674H40.2151L48.7526 2.99646L48.9339 3.03631C57.6905 4.97171 65.5243 9.83759 71.1402 16.8294C76.756 23.8212 79.8175 32.5202 79.8185 41.4881V41.674Z" fill="#7BEA92"/>
<path d="M33.9071 35.5825L7.0735 20.249L7.14563 20.1231C10.3988 14.4403 15.3816 9.94478 21.368 7.29156C27.3545 4.63834 34.0318 3.96606 40.427 5.37268L40.5687 5.40382L33.9071 35.5825Z" fill="#F1F1F1"/>
<path d="M134.336 0.271973H99.8003V17.6756H134.336V0.271973Z" fill="white"/>
<path d="M130.255 4.72705H103.881V5.62111H130.255V4.72705Z" fill="#7BEA92"/>
<path d="M130.255 8.52673H103.881V9.4208H130.255V8.52673Z" fill="#7BEA92"/>
<path d="M130.255 12.3265H103.881V13.2206H130.255V12.3265Z" fill="#7BEA92"/>
<path d="M134.608 17.9475H99.5284V0H134.608V17.9475ZM100.072 17.4037H134.064V0.543865H100.072V17.4037Z" fill="#3F3D56"/>
<path d="M48.3419 63.0798H47.798V107.85H48.3419V63.0798Z" fill="#3F3D56"/>
<path d="M99.666 8.99392L58.8378 27.4607L59.0619 27.9562L99.8901 9.48946L99.666 8.99392Z" fill="#3F3D56"/>
</g>
<defs>
<clipPath id="clip0_333_1076">
<rect width="212.761" height="181" fill="white"/>
</clipPath>
</defs>
</svg>
